<svg width="127" height="110" viewBox="0 0 127 110" fill="none" xmlns="http://www.w3.org/2000/svg">
<g clip-path="url(#clip0_2_37)">
<path d="M44.2264 22.9873H37.1659L26.6224 59.5637H32.0148L34.4487 50.9911H46.5973L48.9683 59.5637H54.539L44.2264 22.9873ZM35.1569 47.3197L40.4916 27.3307H40.7276L45.8892 47.3243L35.1569 47.3197ZM59.3439 59.5637V22.9873H64.5895V59.5637H59.3439ZM60.3249 64.1357H21.3769V18.4153H73.832V40.2696C80.0406 36.7752 87.5502 35.489 94.8141 36.676V27.5594H84.3231V18.4153C84.3148 15.9923 83.2068 13.6707 81.2412 11.9574C79.2755 10.2441 76.6119 9.2784 73.832 9.27117H63.341V0.127075H52.85V9.27117H42.359V0.127075H31.8679V9.27117H21.3769C18.5971 9.2784 15.9335 10.2441 13.9678 11.9574C12.0022 13.6707 10.8942 15.9923 10.8859 18.4153V27.5594H0.394867V36.7034H10.8859V45.8475H0.394867V54.9916H10.8859V64.1357C10.8942 66.5587 12.0022 68.8803 13.9678 70.5936C15.9335 72.3069 18.5971 73.2726 21.3769 73.2798H31.8679V82.4239H42.359V73.2798H52.85V82.4239H63.341V73.3164C61.6777 70.4502 60.6542 67.3348 60.3249 64.1357ZM71.2093 61.8497C71.2093 58.6848 72.286 55.5909 74.3034 52.9594C76.3207 50.3278 79.1881 48.2768 82.5428 47.0656C85.8975 45.8545 89.589 45.5376 93.1503 46.155C96.7117 46.7725 99.983 48.2965 102.551 50.5345C105.118 52.7724 106.867 55.6237 107.575 58.7278C108.284 61.8319 107.92 65.0494 106.53 67.9735C105.141 70.8975 102.788 73.3967 99.7685 75.155C96.7493 76.9133 93.1997 77.8519 89.5686 77.8519C87.1574 77.8525 84.7697 77.439 82.542 76.635C80.3142 75.831 78.29 74.6523 76.5851 73.1663C74.8801 71.6802 73.5278 69.9159 72.6054 67.9742C71.683 66.0324 71.2086 63.9513 71.2093 61.8497ZM89.5686 86.9959C77.3151 86.9959 52.85 92.359 52.85 102.998V109.856H126.287V102.998C126.287 92.3544 101.822 86.9959 89.5686 86.9959Z" fill="black"/>
</g>
<defs>
<clipPath id="clip0_2_37">
<rect width="125.892" height="109.729" fill="white" transform="translate(0.394867 0.127075)"/>
</clipPath>
</defs>
</svg>
