<svg width="30" height="30" viewBox="0 0 30 30" fill="none" xmlns="http://www.w3.org/2000/svg">
<path d="M16.4571 0.00181075C17.5355 -0.00231028 18.614 0.00848319 19.6922 0.0341878L19.9789 0.0444895C20.31 0.056263 20.6366 0.0709797 21.0312 0.0886399C22.6037 0.162224 23.6767 0.409466 24.6181 0.772971C25.5935 1.14678 26.4153 1.65304 27.237 2.47129C27.9883 3.20655 28.5698 4.09595 28.941 5.07763C29.3061 6.01509 29.5544 7.08501 29.6283 8.65087C29.646 9.04234 29.6608 9.36905 29.6726 9.69871L29.6815 9.98422C29.7077 11.0574 29.7191 12.1308 29.7155 13.2043L29.7169 14.3021V16.23C29.7206 17.304 29.7092 18.3779 29.6829 19.4515L29.6741 19.737C29.6623 20.0667 29.6475 20.3919 29.6297 20.7849C29.5558 22.3507 29.3046 23.4192 28.941 24.3566C28.571 25.3394 27.9894 26.2295 27.237 26.9645C26.498 27.7125 25.6043 28.2915 24.6181 28.6613C23.6767 29.0248 22.6037 29.2721 21.0312 29.3456C20.6366 29.3633 20.31 29.378 19.9789 29.3898L19.6922 29.3986C18.614 29.4248 17.5355 29.4361 16.4571 29.4325L15.3545 29.4339H13.4199C12.3414 29.4376 11.2629 29.4263 10.1848 29.4001L9.89805 29.3913C9.54721 29.3786 9.19644 29.3639 8.84577 29.3471C7.27327 29.2735 6.2003 29.0233 5.25739 28.6613C4.27115 28.2924 3.37783 27.7133 2.63999 26.9645C1.8878 26.229 1.30576 25.3391 0.934475 24.3566C0.569429 23.4192 0.321139 22.3507 0.247243 20.7849C0.230783 20.4357 0.216004 20.0864 0.202905 19.737L0.195516 19.4515C0.168268 18.3779 0.155951 17.304 0.158568 16.23V13.2043C0.154443 12.1308 0.165282 11.0574 0.191082 9.98422L0.201427 9.69871C0.213251 9.36905 0.22803 9.04234 0.245765 8.65087C0.319661 7.08353 0.567951 6.01657 0.932997 5.07763C1.3045 4.09547 1.88768 3.20631 2.64147 2.47276C3.3788 1.72331 4.27156 1.14321 5.25739 0.772971C6.2003 0.409466 7.27179 0.162224 8.84577 0.0886399L9.89805 0.0444895L10.1848 0.0371313C11.2624 0.0100124 12.3404 -0.00225292 13.4185 0.000339175L16.4571 0.00181075ZM14.9378 7.36021C13.9586 7.34642 12.9865 7.52655 12.0779 7.89011C11.1693 8.25368 10.3424 8.79345 9.6451 9.47804C8.94781 10.1626 8.39412 10.9784 8.0162 11.8779C7.63827 12.7774 7.44366 13.7428 7.44366 14.7179C7.44366 15.693 7.63827 16.6583 8.0162 17.5578C8.39412 18.4574 8.94781 19.2731 9.6451 19.9577C10.3424 20.6423 11.1693 21.1821 12.0779 21.5456C12.9865 21.9092 13.9586 22.0893 14.9378 22.0755C16.8976 22.0755 18.7772 21.3003 20.163 19.9203C21.5488 18.5403 22.3273 16.6687 22.3273 14.7171C22.3273 12.7656 21.5488 10.8939 20.163 9.51396C18.7772 8.134 16.8976 7.36021 14.9378 7.36021ZM14.9378 10.3036C15.5267 10.2928 16.1119 10.3989 16.6592 10.6159C17.2065 10.8328 17.7049 11.1562 18.1253 11.5671C18.5457 11.978 18.8796 12.4682 19.1076 13.009C19.3356 13.5499 19.4531 14.1306 19.4532 14.7171C19.4533 15.3037 19.336 15.8844 19.1082 16.4253C18.8804 16.9663 18.5466 17.4566 18.1263 17.8676C17.7061 18.2787 17.2078 18.6022 16.6606 18.8193C16.1134 19.0364 15.5282 19.1428 14.9392 19.1322C13.7633 19.1322 12.6356 18.667 11.8041 17.839C10.9726 17.0111 10.5055 15.8881 10.5055 14.7171C10.5055 13.5462 10.9726 12.4232 11.8041 11.5952C12.6356 10.7673 13.7633 10.3021 14.9392 10.3021L14.9378 10.3036ZM22.6968 5.15269C22.22 5.17169 21.7691 5.37366 21.4385 5.7163C21.1079 6.05894 20.9233 6.51566 20.9233 6.99082C20.9233 7.46597 21.1079 7.9227 21.4385 8.26534C21.7691 8.60797 22.22 8.80995 22.6968 8.82895C23.1868 8.82895 23.6567 8.63513 24.0031 8.29014C24.3496 7.94515 24.5442 7.47724 24.5442 6.98935C24.5442 6.50145 24.3496 6.03355 24.0031 5.68855C23.6567 5.34356 23.1868 5.14975 22.6968 5.14975V5.15269Z" fill="white"/>
</svg>
