<svg width="29" height="30" viewBox="0 0 29 30" fill="none" xmlns="http://www.w3.org/2000/svg">
<path d="M1.80623 8.84443C2.99861 6.4801 4.8278 4.49256 7.08937 3.10394C9.35094 1.71533 11.9558 0.980368 14.6127 0.981202C18.475 0.981202 21.7196 2.39544 24.2004 4.69875L20.0916 8.79163C18.6054 7.37739 16.7165 6.65671 14.6127 6.65671C10.8794 6.65671 7.71933 9.16838 6.59432 12.5406C6.3077 13.3968 6.14432 14.3102 6.14432 15.252C6.14432 16.1939 6.3077 17.1072 6.59432 17.9635C7.72077 21.3371 10.8794 23.8474 14.6127 23.8474C16.5403 23.8474 18.1812 23.3407 19.4653 22.4845C20.2097 21.9964 20.847 21.3631 21.3387 20.6229C21.8303 19.8826 22.1662 19.0507 22.3258 18.1776H14.6127V12.6576H28.1099C28.2791 13.5909 28.3708 14.5642 28.3708 15.576C28.3708 19.9229 26.8087 23.5819 24.0972 26.0651C21.7268 28.2456 18.4822 29.5229 14.6127 29.5229C12.7305 29.5236 10.8665 29.155 9.12745 28.4381C7.38835 27.7212 5.80818 26.67 4.47724 25.3447C3.1463 24.0194 2.0907 22.4459 1.37075 20.7141C0.650796 18.9824 0.28062 17.1263 0.281373 15.252C0.281373 12.9487 0.834562 10.771 1.80623 8.84443Z" fill="white"/>
</svg>
