<svg width="33" height="29" viewBox="0 0 33 29" fill="none" xmlns="http://www.w3.org/2000/svg">
<path d="M2.9292 22.6452C4.31146 23.4066 14.3162 29.1491 21.4309 24.723C28.545 20.2969 28.1523 12.6713 28.1523 9.17639C28.7972 7.83208 30.1587 7.14851 30.1587 3.50944C28.8216 4.73959 27.4924 5.15773 26.171 4.76528C24.8769 2.80018 23.0962 1.93038 20.8283 2.15728C17.4275 2.49764 16.1835 5.81989 16.5497 10.119C11.3059 12.7591 7.1942 8.20455 5.0746 4.76528C4.36663 7.47388 3.68446 10.7262 5.0746 14.3232C6.00184 16.7221 8.23108 18.7493 11.7609 20.4068C8.18307 22.337 5.23941 23.084 2.9292 22.6452Z" fill="white" stroke="white" stroke-width="4" stroke-linejoin="round"/>
</svg>
